<?xml version="1.0" encoding="utf-8"?>
<!-- Generator: Adobe Illustrator 27.1.1, SVG Export Plug-In . SVG Version: 6.00 Build 0)  -->
<svg version="1.1" id="Lager_1" xmlns="http://www.w3.org/2000/svg" xmlns:xlink="http://www.w3.org/1999/xlink" x="0px" y="0px"
	 viewBox="0 0 10 10" style="enable-background:new 0 0 10 10;" xml:space="preserve">
<style type="text/css">
	.st0{fill:#1D1D1B;}
	.st1{fill:#FFFFFF;}
	.st2{fill:none;stroke:#FFFFFF;stroke-miterlimit:10;}
</style>
<g>
	<polygon class="st0" points="-11,4.96 -6,0.04 -1.07,5.04 -6.04,9.93 	"/>
	<path class="st1" d="M-6.04,0.14L-1.18,5l-4.86,4.86L-10.89,5L-6.04,0.14 M-6.04,0l-5,5l5,5l5-5L-6.04,0L-6.04,0z"/>
</g>
<g>
	
		<rect x="-19.03" y="1.94" transform="matrix(0.7071 -0.7071 0.7071 0.7071 -8.2135 -9.8291)" class="st0" width="6.11" height="6.11"/>
	<path class="st1" d="M-15.97,0.85L-11.83,5l-4.15,4.15L-20.12,5L-15.97,0.85 M-15.97,0.5l-4.5,4.5l4.5,4.5l4.5-4.5L-15.97,0.5
		L-15.97,0.5z"/>
</g>
<g>
	<g>
		<line class="st2" x1="23.65" y1="7" x2="23.65" y2="3"/>
	</g>
	<g>
		<line class="st2" x1="21.65" y1="5" x2="25.65" y2="5"/>
	</g>
</g>
<g>
	<line class="st2" x1="16.09" y1="9" x2="16.09" y2="1"/>
</g>
<g>
	<line class="st2" x1="12.09" y1="5" x2="20.09" y2="5"/>
</g>
<g>
	<circle class="st1" cx="4.89" cy="5.5" r="2.25"/>
	<path class="st0" d="M4.89,3.5c1.1,0,2,0.9,2,2s-0.9,2-2,2s-2-0.9-2-2S3.79,3.5,4.89,3.5 M4.89,3c-1.38,0-2.5,1.12-2.5,2.5
		S3.51,8,4.89,8s2.5-1.12,2.5-2.5S6.27,3,4.89,3L4.89,3z"/>
</g>
<g>
	<circle class="st0" cx="4.89" cy="-3.63" r="2.25"/>
	<path class="st1" d="M4.89-5.63c1.1,0,2,0.9,2,2s-0.9,2-2,2s-2-0.9-2-2S3.79-5.63,4.89-5.63 M4.89-6.13c-1.38,0-2.5,1.12-2.5,2.5
		s1.12,2.5,2.5,2.5s2.5-1.12,2.5-2.5S6.27-6.13,4.89-6.13L4.89-6.13z"/>
</g>
</svg>
